<svg width="18" height="18" viewBox="0 0 18 18" fill="none" xmlns="http://www.w3.org/2000/svg">
<path fill-rule="evenodd" clip-rule="evenodd" d="M8.9997 10.5915L12.977 14.5687C13.188 14.7798 13.4742 14.8984 13.7727 14.8984C14.0712 14.8984 14.3574 14.7798 14.5685 14.5687C14.7795 14.3577 14.8981 14.0715 14.8981 13.773C14.8981 13.4745 14.7795 13.1883 14.5685 12.9772L10.5897 8.99999L14.5677 5.02274C14.6722 4.91824 14.755 4.79419 14.8115 4.65768C14.868 4.52116 14.8971 4.37485 14.897 4.2271C14.897 4.07935 14.8679 3.93306 14.8113 3.79657C14.7547 3.66008 14.6718 3.53607 14.5673 3.43162C14.4628 3.32717 14.3388 3.24432 14.2023 3.18781C14.0657 3.1313 13.9194 3.10224 13.7717 3.10227C13.6239 3.10231 13.4776 3.13144 13.3412 3.18801C13.2047 3.24459 13.0807 3.32749 12.9762 3.43199L8.9997 7.40924L5.02245 3.43199C4.91873 3.32449 4.79463 3.23873 4.6574 3.17971C4.52018 3.12068 4.37257 3.08958 4.22319 3.08821C4.07382 3.08684 3.92567 3.11524 3.78738 3.17174C3.6491 3.22824 3.52345 3.31172 3.41777 3.4173C3.31209 3.52287 3.2285 3.64844 3.17187 3.78667C3.11524 3.9249 3.0867 4.07303 3.08793 4.22241C3.08916 4.37178 3.12012 4.51942 3.17901 4.6567C3.23791 4.79398 3.32355 4.91816 3.43095 5.02199L7.4097 8.99999L3.4317 12.978C3.3243 13.0818 3.23866 13.206 3.17976 13.3433C3.12087 13.4806 3.08991 13.6282 3.08868 13.7776C3.08745 13.927 3.11599 14.0751 3.17262 14.2133C3.22925 14.3515 3.31284 14.4771 3.41852 14.5827C3.5242 14.6883 3.64985 14.7717 3.78813 14.8282C3.92642 14.8847 4.07457 14.9131 4.22394 14.9118C4.37332 14.9104 4.52093 14.8793 4.65815 14.8203C4.79538 14.7612 4.91948 14.6755 5.0232 14.568L8.9997 10.5915Z" fill="#BE8788"/>
</svg>
