<svg width="16" height="16" viewBox="0 0 16 16" fill="none" xmlns="http://www.w3.org/2000/svg">
<path d="M3.33333 13.3333V12H12.6667V13.3333H3.33333ZM3.33333 11L2.48333 5.65C2.46111 5.65 2.436 5.65288 2.408 5.65866C2.38 5.66444 2.35511 5.66711 2.33333 5.66666C2.05555 5.66666 1.81955 5.56933 1.62533 5.37466C1.43111 5.18 1.33377 4.944 1.33333 4.66666C1.33289 4.38933 1.43022 4.15333 1.62533 3.95866C1.82044 3.764 2.05644 3.66666 2.33333 3.66666C2.61022 3.66666 2.84644 3.764 3.042 3.95866C3.23755 4.15333 3.33466 4.38933 3.33333 4.66666C3.33333 4.74444 3.32489 4.81666 3.308 4.88333C3.29111 4.95 3.27177 5.01111 3.25 5.06666L5.33333 6L7.41666 3.15C7.29444 3.06111 7.19444 2.94444 7.11666 2.8C7.03889 2.65555 7 2.5 7 2.33333C7 2.05555 7.09733 1.81933 7.292 1.62466C7.48666 1.43 7.72266 1.33289 8 1.33333C8.27733 1.33377 8.51355 1.43111 8.70866 1.62533C8.90377 1.81955 9.00089 2.05555 9 2.33333C9 2.5 8.96111 2.65555 8.88333 2.8C8.80555 2.94444 8.70555 3.06111 8.58333 3.15L10.6667 6L12.75 5.06666C12.7278 5.01111 12.7082 4.95 12.6913 4.88333C12.6744 4.81666 12.6662 4.74444 12.6667 4.66666C12.6667 4.38889 12.764 4.15266 12.9587 3.958C13.1533 3.76333 13.3893 3.66622 13.6667 3.66666C13.944 3.66711 14.1802 3.76444 14.3753 3.95866C14.5704 4.15289 14.6676 4.38889 14.6667 4.66666C14.6658 4.94444 14.5687 5.18066 14.3753 5.37533C14.182 5.57 13.9458 5.66711 13.6667 5.66666C13.6444 5.66666 13.6196 5.664 13.592 5.65866C13.5644 5.65333 13.5393 5.65044 13.5167 5.65L12.6667 11H3.33333Z" fill="#9374AB"/>
</svg>
