<svg width="20" height="20" viewBox="0 0 20 20" fill="none" xmlns="http://www.w3.org/2000/svg">
<path d="M7.8957 11.8435H2.13227C-0.519764 11.8435 2.92809 1.125 4.82805 1.125H17.8705C18.4247 1.125 18.8747 1.54213 18.8747 2.05665V11.2896C18.8736 11.4578 18.8244 11.6227 18.7324 11.7668C18.6404 11.9108 18.5088 12.0287 18.3517 12.1081C16.2039 13.1962 13.6841 14.0875 12.4373 16.1702L11.104 18.3995C11.0245 18.5319 10.909 18.642 10.7695 18.7182C10.63 18.7945 10.4714 18.8342 10.3102 18.8333C6.9978 18.8333 7.98007 14.2783 8.43006 12.4682C8.44817 12.3928 8.44795 12.3145 8.42944 12.2392C8.41092 12.164 8.37459 12.0936 8.32317 12.0335C8.27174 11.9734 8.20657 11.9251 8.13253 11.8921C8.05849 11.8592 7.97752 11.8426 7.8957 11.8435Z" stroke="#B27C7D" stroke-width="1.5" stroke-linecap="round" stroke-linejoin="round"/>
</svg>
