<svg width="19" height="19" viewBox="0 0 19 19" fill="none" xmlns="http://www.w3.org/2000/svg">
<path d="M7.4599 11.2897H1.927C-0.618946 11.2897 2.69099 1 4.51495 1H17.0357C17.5677 1 17.9997 1.40044 17.9997 1.89439V10.758C17.9987 10.9195 17.9515 11.0778 17.8631 11.2161C17.7748 11.3544 17.6485 11.4676 17.4977 11.5438C15.4357 12.5883 13.0168 13.444 11.8198 15.4434L10.5398 17.5835C10.4635 17.7106 10.3527 17.8163 10.2187 17.8895C10.0848 17.9627 9.93261 18.0008 9.77785 18C6.59791 18 7.5409 13.6272 7.97289 11.8894C7.99027 11.8171 7.99006 11.7419 7.97229 11.6697C7.95451 11.5974 7.91963 11.5299 7.87027 11.4722C7.8209 11.4145 7.75833 11.3681 7.68725 11.3365C7.61618 11.3049 7.53845 11.2889 7.4599 11.2897Z" stroke="#9D7CB2" stroke-width="1.5" stroke-linecap="round" stroke-linejoin="round"/>
</svg>
