<svg width="17" height="17" viewBox="0 0 17 17" fill="none" xmlns="http://www.w3.org/2000/svg">
<path d="M8.16193 7.69473L4.74622 4.27902C4.55949 4.09229 4.55949 3.78958 4.74622 3.60284L8.16193 0.18717C8.34866 0.000435542 8.65138 0.000435542 8.83811 0.18717L12.2538 3.60288C12.4405 3.78961 12.4405 4.09232 12.2538 4.27906L8.83808 7.69473C8.65138 7.88143 8.34863 7.88143 8.16193 7.69473ZM8.83808 16.8128L12.2538 13.3971C12.4405 13.2104 12.4405 12.9077 12.2538 12.721L8.83808 9.30528C8.65134 9.11854 8.34863 9.11854 8.1619 9.30528L4.74622 12.721C4.55949 12.9077 4.55949 13.2104 4.74622 13.3972L8.16193 16.8129C8.34863 16.9996 8.65138 16.9996 8.83808 16.8128ZM9.30528 8.78685L12.721 12.2025C12.9077 12.3893 13.2104 12.3893 13.3972 12.2025L16.8129 8.78685C16.9996 8.60011 16.9996 8.2974 16.8129 8.11066L13.3971 4.69499C13.2104 4.50826 12.9077 4.50826 12.721 4.69499L9.30528 8.1107C9.11858 8.2974 9.11858 8.60014 9.30528 8.78685ZM0.18717 8.78685L3.60288 12.2025C3.78961 12.3893 4.09232 12.3893 4.27906 12.2025L7.69476 8.78685C7.8815 8.60011 7.8815 8.2974 7.69476 8.11066L4.27902 4.69499C4.09229 4.50826 3.78958 4.50826 3.60284 4.69499L0.18717 8.1107C0.000435542 8.2974 0.000435542 8.60014 0.18717 8.78685Z" fill="#5170DE"/>
</svg>
