<svg width="153" height="110" viewBox="0 0 153 110" fill="none" xmlns="http://www.w3.org/2000/svg">
<g filter="url(#filter0_d_186_395)">
<path d="M75.543 31.3964H83.9847V52.8844H115.449C116.569 52.8844 117.642 52.4397 118.434 51.6482C119.226 50.8566 119.67 49.783 119.67 48.6636V35.6172C119.67 34.4978 119.226 33.4242 118.434 32.6326C117.642 31.8411 116.569 31.3964 115.449 31.3964H103.972C105.527 28.1954 105.889 24.5452 104.993 21.1014C104.098 17.6576 102.004 14.6458 99.0878 12.607C96.1715 10.5683 92.6238 9.63615 89.082 9.97808C85.5401 10.32 82.2363 11.9136 79.7638 14.4726C77.2871 11.9276 73.986 10.3464 70.4507 10.0114C66.9153 9.67648 63.376 10.6097 60.4654 12.6443C57.5549 14.6789 55.4627 17.6822 54.5628 21.1175C53.6629 24.5528 54.014 28.1961 55.5533 31.3964H44.0783C42.9588 31.3964 41.8853 31.8411 41.0937 32.6326C40.3021 33.4242 39.8574 34.4978 39.8574 35.6172V48.6636C39.8574 49.783 40.3021 50.8566 41.0937 51.6482C41.4856 52.0401 41.9509 52.351 42.463 52.5631C42.9751 52.7752 43.524 52.8844 44.0783 52.8844H75.543V31.3964ZM83.9847 24.8732C83.9847 23.583 84.3673 22.3219 85.084 21.2491C85.8008 20.1764 86.8196 19.3403 88.0115 18.8466C89.2035 18.3529 90.5151 18.2237 91.7805 18.4754C93.0458 18.7271 94.2081 19.3483 95.1204 20.2606C96.0327 21.1729 96.654 22.3352 96.9057 23.6006C97.1574 24.866 97.0282 26.1776 96.5345 27.3695C96.0407 28.5615 95.2046 29.5802 94.1319 30.297C93.0592 31.0138 91.798 31.3964 90.5078 31.3964H83.9847V24.8732ZM62.4966 24.8732C62.4966 23.1431 63.1839 21.484 64.4072 20.2606C65.6305 19.0373 67.2897 18.35 69.0198 18.35C70.7498 18.35 72.409 19.0373 73.6324 20.2606C74.8557 21.484 75.543 23.1431 75.543 24.8732V31.3964H69.0198C67.2897 31.3964 65.6305 30.7091 64.4072 29.4858C63.1839 28.2624 62.4966 26.6032 62.4966 24.8732ZM83.9847 95.8605H109.31C110.429 95.8605 111.503 95.4158 112.295 94.6243C113.086 93.8327 113.531 92.7591 113.531 91.6397V59.0239H83.9847V95.8605ZM45.9969 91.6397C45.9969 92.7591 46.4416 93.8327 47.2331 94.6243C48.0247 95.4158 49.0983 95.8605 50.2177 95.8605H75.543V59.0239H45.9969V91.6397Z" fill="#BE8788"/>
<path d="M5.57031 48.9952C8.85132 48.9952 10.2814 47.6149 10.2814 44.2841C10.2814 47.6149 11.7015 48.9952 14.9925 48.9952C11.7015 48.9952 10.2814 50.4154 10.2814 53.7063C10.2814 50.4154 8.85132 48.9952 5.57031 48.9952Z" fill="#BE8788" stroke="#BE8788" stroke-width="2.00396" stroke-linejoin="round"/>
<path d="M19.3887 85.4276C22.6697 85.4276 24.0998 84.0473 24.0998 80.7165C24.0998 84.0473 25.5199 85.4276 28.8108 85.4276C25.5199 85.4276 24.0998 86.8478 24.0998 90.1387C24.0998 86.8478 22.6697 85.4276 19.3887 85.4276Z" fill="#BE8788" stroke="#BE8788" stroke-width="2.00396" stroke-linejoin="round"/>
<path d="M120.835 12.5629C126.085 12.5629 128.373 10.3543 128.373 5.02514C128.373 10.3543 130.645 12.5629 135.91 12.5629C130.645 12.5629 128.373 14.8351 128.373 20.1006C128.373 14.8351 126.085 12.5629 120.835 12.5629Z" fill="#BE8788" stroke="#BE8788" stroke-width="2.00396" stroke-linejoin="round"/>
<path d="M137.481 47.739C140.762 47.739 142.193 46.3586 142.193 43.0279C142.193 46.3586 143.613 47.739 146.904 47.739C143.613 47.739 142.193 49.1591 142.193 52.4501C142.193 49.1591 140.762 47.739 137.481 47.739Z" fill="#BE8788" stroke="#BE8788" stroke-width="2.00396" stroke-linejoin="round"/>
<path d="M22.8438 10.0503C28.0934 10.0503 30.3815 7.84177 30.3815 2.51259C30.3815 7.84177 32.6537 10.0503 37.9192 10.0503C32.6537 10.0503 30.3815 12.3225 30.3815 17.5881C30.3815 12.3225 28.0934 10.0503 22.8438 10.0503Z" fill="#BE8788" stroke="#BE8788" stroke-width="1.73377" stroke-linejoin="round"/>
</g>
<defs>
<filter id="filter0_d_186_395" x="0" y="0" width="152.474" height="110" filterUnits="userSpaceOnUse" color-interpolation-filters="sRGB">
<feFlood flood-opacity="0" result="BackgroundImageFix"/>
<feColorMatrix in="SourceAlpha" type="matrix" values="0 0 0 0 0 0 0 0 0 0 0 0 0 0 0 0 0 0 127 0" result="hardAlpha"/>
<feOffset dy="4"/>
<feGaussianBlur stdDeviation="2"/>
<feComposite in2="hardAlpha" operator="out"/>
<feColorMatrix type="matrix" values="0 0 0 0 0 0 0 0 0 0 0 0 0 0 0 0 0 0 0.25 0"/>
<feBlend mode="normal" in2="BackgroundImageFix" result="effect1_dropShadow_186_395"/>
<feBlend mode="normal" in="SourceGraphic" in2="effect1_dropShadow_186_395" result="shape"/>
</filter>
</defs>
</svg>
