<svg width="145" height="101" viewBox="0 0 145 101" fill="none" xmlns="http://www.w3.org/2000/svg">
<path d="M1.57031 48.9952C4.85132 48.9952 6.2814 47.6149 6.2814 44.2841C6.2814 47.6149 7.70153 48.9952 10.9925 48.9952C7.70153 48.9952 6.2814 50.4154 6.2814 53.7063C6.2814 50.4154 4.85132 48.9952 1.57031 48.9952Z" fill="#5170DE" stroke="#5170DE" stroke-width="2.00396" stroke-linejoin="round"/>
<path d="M15.3887 85.4276C18.6697 85.4276 20.0998 84.0473 20.0998 80.7165C20.0998 84.0473 21.5199 85.4276 24.8108 85.4276C21.5199 85.4276 20.0998 86.8477 20.0998 90.1387C20.0998 86.8477 18.6697 85.4276 15.3887 85.4276Z" fill="#5170DE" stroke="#5170DE" stroke-width="2.00396" stroke-linejoin="round"/>
<path d="M116.835 12.5629C122.085 12.5629 124.373 10.3543 124.373 5.02514C124.373 10.3543 126.645 12.5629 131.91 12.5629C126.645 12.5629 124.373 14.8351 124.373 20.1006C124.373 14.8351 122.085 12.5629 116.835 12.5629Z" fill="#5170DE" stroke="#5170DE" stroke-width="2.00396" stroke-linejoin="round"/>
<path d="M133.481 47.739C136.762 47.739 138.193 46.3587 138.193 43.0279C138.193 46.3587 139.613 47.739 142.904 47.739C139.613 47.739 138.193 49.1591 138.193 52.4501C138.193 49.1591 136.762 47.739 133.481 47.739Z" fill="#5170DE" stroke="#5170DE" stroke-width="2.00396" stroke-linejoin="round"/>
<path d="M18.8438 10.0503C24.0934 10.0503 26.3815 7.84177 26.3815 2.51259C26.3815 7.84177 28.6537 10.0503 33.9192 10.0503C28.6537 10.0503 26.3815 12.3225 26.3815 17.5881C26.3815 12.3225 24.0934 10.0503 18.8438 10.0503Z" fill="#5170DE" stroke="#5170DE" stroke-width="1.73377" stroke-linejoin="round"/>
<path d="M74.2502 52.8315L56.5689 35.1502C55.6023 34.1836 55.6023 32.6166 56.5689 31.65L74.2502 13.9689C75.2168 13.0022 76.7838 13.0022 77.7505 13.9689L95.4316 31.6502C96.3982 32.6168 96.3982 34.1838 95.4316 35.1504L77.7503 52.8315C76.7838 53.798 75.2167 53.798 74.2502 52.8315ZM77.7503 100.031L95.4316 82.3498C96.3982 81.3832 96.3982 79.8162 95.4316 78.8496L77.7503 61.1685C76.7837 60.2019 75.2167 60.2019 74.25 61.1685L56.5689 78.8498C55.6023 79.8164 55.6023 81.3834 56.5689 82.35L74.2502 100.031C75.2167 100.998 76.7838 100.998 77.7503 100.031ZM80.1687 58.4848L97.85 76.1661C98.8167 77.1328 100.384 77.1328 101.35 76.1661L119.032 58.4848C119.998 57.5182 119.998 55.9512 119.032 54.9846L101.35 37.3035C100.383 36.3368 98.8165 36.3368 97.8499 37.3035L80.1687 54.9848C79.2023 55.9512 79.2023 57.5184 80.1687 58.4848ZM32.9691 58.4848L50.6504 76.1661C51.617 77.1328 53.184 77.1328 54.1506 76.1661L71.8319 58.4848C72.7986 57.5182 72.7986 55.9512 71.8319 54.9846L54.1505 37.3035C53.1838 36.3368 51.6169 36.3368 50.6502 37.3035L32.9691 54.9848C32.0025 55.9512 32.0025 57.5184 32.9691 58.4848Z" fill="#5170DE"/>
</svg>
