<svg width="21" height="21" viewBox="0 0 21 21" fill="none" xmlns="http://www.w3.org/2000/svg">
<path d="M9.59766 5.90625H11.4023V10.5H18.1289C18.3682 10.5 18.5977 10.4049 18.767 10.2357C18.9362 10.0665 19.0312 9.83698 19.0312 9.59766V6.8086C19.0312 6.56928 18.9362 6.33977 18.767 6.17055C18.5977 6.00132 18.3682 5.90625 18.1289 5.90625H15.6754C16.0076 5.22195 16.085 4.44161 15.8936 3.70538C15.7022 2.96915 15.2546 2.32529 14.6311 1.88944C14.0077 1.4536 13.2492 1.25432 12.4921 1.32742C11.7349 1.40052 11.0286 1.7412 10.5 2.28827C9.97052 1.7442 9.26482 1.40615 8.50902 1.33455C7.75323 1.26295 6.9966 1.46245 6.37436 1.89741C5.75213 2.33236 5.30486 2.97442 5.11248 3.70882C4.9201 4.44322 4.99516 5.2221 5.32424 5.90625H2.87109C2.63178 5.90625 2.40226 6.00132 2.23304 6.17055C2.06382 6.33977 1.96875 6.56928 1.96875 6.8086V9.59766C1.96875 9.83698 2.06382 10.0665 2.23304 10.2357C2.31683 10.3195 2.4163 10.386 2.52578 10.4313C2.63526 10.4767 2.7526 10.5 2.87109 10.5H9.59766V5.90625ZM11.4023 4.51172C11.4023 4.23591 11.4841 3.96629 11.6374 3.73696C11.7906 3.50763 12.0084 3.32889 12.2632 3.22334C12.518 3.1178 12.7984 3.09018 13.0689 3.14399C13.3394 3.1978 13.5879 3.33061 13.783 3.52564C13.978 3.72067 14.1108 3.96915 14.1646 4.23966C14.2184 4.51018 14.1908 4.79057 14.0853 5.04539C13.9797 5.3002 13.801 5.518 13.5716 5.67123C13.3423 5.82447 13.0727 5.90625 12.7969 5.90625H11.4023V4.51172ZM6.80859 4.51172C6.80859 4.14187 6.95552 3.78717 7.21704 3.52564C7.47857 3.26412 7.83327 3.11719 8.20312 3.11719C8.57298 3.11719 8.92768 3.26412 9.18921 3.52564C9.45073 3.78717 9.59766 4.14187 9.59766 4.51172V5.90625H8.20312C7.83327 5.90625 7.47857 5.75933 7.21704 5.49781C6.95552 5.23628 6.80859 4.88158 6.80859 4.51172ZM11.4023 19.6875H16.8164C17.0557 19.6875 17.2852 19.5924 17.4545 19.4232C17.6237 19.254 17.7188 19.0245 17.7188 18.7852V11.8125H11.4023V19.6875ZM3.28125 18.7852C3.28125 19.0245 3.37632 19.254 3.54554 19.4232C3.71476 19.5924 3.94428 19.6875 4.18359 19.6875H9.59766V11.8125H3.28125V18.7852Z" fill="#726097"/>
</svg>
