<svg width="21" height="20" viewBox="0 0 21 20" fill="none" xmlns="http://www.w3.org/2000/svg">
<path d="M10.6042 16.3229L10.5 16.4271L10.3855 16.3229C5.43754 11.8333 2.16671 8.86458 2.16671 5.85417C2.16671 3.77083 3.72921 2.20833 5.81254 2.20833C7.41671 2.20833 8.97921 3.25 9.53129 4.66667H11.4688C12.0209 3.25 13.5834 2.20833 15.1875 2.20833C17.2709 2.20833 18.8334 3.77083 18.8334 5.85417C18.8334 8.86458 15.5625 11.8333 10.6042 16.3229ZM15.1875 0.125C13.375 0.125 11.6355 0.96875 10.5 2.29167C9.36462 0.96875 7.62504 0.125 5.81254 0.125C2.60421 0.125 0.083374 2.63542 0.083374 5.85417C0.083374 9.78125 3.62504 13 8.98962 17.8646L10.5 19.2396L12.0105 17.8646C17.375 13 20.9167 9.78125 20.9167 5.85417C20.9167 2.63542 18.3959 0.125 15.1875 0.125Z" fill="#609777"/>
</svg>
