<svg width="23" height="23" viewBox="0 0 23 23" fill="none" xmlns="http://www.w3.org/2000/svg">
<path d="M11.5959 17.7771L11.5 17.8729L11.3946 17.7771C6.84252 13.6467 3.83335 10.9154 3.83335 8.14583C3.83335 6.22917 5.27085 4.79167 7.18752 4.79167C8.66335 4.79167 10.1009 5.75 10.6088 7.05333H12.3913C12.8992 5.75 14.3367 4.79167 15.8125 4.79167C17.7292 4.79167 19.1667 6.22917 19.1667 8.14583C19.1667 10.9154 16.1575 13.6467 11.5959 17.7771ZM15.8125 2.875C14.145 2.875 12.5446 3.65125 11.5 4.86833C10.4554 3.65125 8.85502 2.875 7.18752 2.875C4.23585 2.875 1.91669 5.18458 1.91669 8.14583C1.91669 11.7587 5.17502 14.72 10.1104 19.1954L11.5 20.4604L12.8896 19.1954C17.825 14.72 21.0834 11.7587 21.0834 8.14583C21.0834 5.18458 18.7642 2.875 15.8125 2.875Z" fill="#726097"/>
</svg>
