<svg width="23" height="17" viewBox="0 0 23 17" fill="none" xmlns="http://www.w3.org/2000/svg">
<path fill-rule="evenodd" clip-rule="evenodd" d="M0.919983 3.36668C0.919983 2.67535 1.19865 2.01233 1.69469 1.52348C2.19072 1.03464 2.86349 0.76001 3.56498 0.76001H19.435C20.1365 0.76001 20.8092 1.03464 21.3053 1.52348C21.8013 2.01233 22.08 2.67535 22.08 3.36668V13.7933C22.08 14.4847 21.8013 15.1477 21.3053 15.6365C20.8092 16.1254 20.1365 16.4 19.435 16.4H3.56498C2.86349 16.4 2.19072 16.1254 1.69469 15.6365C1.19865 15.1477 0.919983 14.4847 0.919983 13.7933V3.36668ZM3.56498 2.06334C3.21423 2.06334 2.87785 2.20066 2.62983 2.44508C2.38182 2.6895 2.24248 3.02101 2.24248 3.36668V3.6495L6.52077 6.17797C6.33308 6.60092 6.22851 7.05512 6.21263 7.51649L2.24248 5.17049V12.6269L6.80908 9.85858C7.00216 10.22 7.24462 10.5828 7.53645 10.9469L2.28613 14.1309C2.36158 14.4082 2.52785 14.6532 2.7591 14.8279C2.99035 15.0025 3.27364 15.097 3.56498 15.0967H19.435C19.7261 15.0967 20.0091 15.0021 20.2401 14.8275C20.4711 14.6529 20.6371 14.408 20.7125 14.1309L15.4648 10.9482C15.7558 10.5824 15.9982 10.2192 16.1922 9.85858L20.7575 12.6269V5.16919L16.7873 7.51649C16.7713 7.05557 16.6667 6.60182 16.4792 6.17927L20.7575 3.6495V3.36668C20.7575 3.02101 20.6181 2.6895 20.3701 2.44508C20.1221 2.20066 19.7857 2.06334 19.435 2.06334H3.56498ZM11.5 5.96422C13.7006 3.73422 19.2035 7.6364 11.5 12.6529C3.79642 7.63509 9.29934 3.73422 11.5 5.96422Z" fill="#726097"/>
</svg>
