<svg width="23" height="23" viewBox="0 0 23 23" fill="none" xmlns="http://www.w3.org/2000/svg">
<path fill-rule="evenodd" clip-rule="evenodd" d="M11.5 1.91669C12.7585 1.91668 14.0047 2.16456 15.1674 2.64616C16.3301 3.12776 17.3866 3.83367 18.2765 4.72356C19.1664 5.61345 19.8723 6.66991 20.3539 7.83262C20.8355 8.99532 21.0834 10.2415 21.0834 11.5C21.0834 16.7927 16.7927 21.0834 11.5 21.0834C6.20731 21.0834 1.91669 16.7927 1.91669 11.5C1.91669 6.20731 6.20731 1.91669 11.5 1.91669ZM12.4584 12.4584H10.5417C8.16914 12.4584 6.13225 13.8953 5.25371 15.9465C6.64377 17.8957 8.92347 19.1667 11.5 19.1667C14.0765 19.1667 16.3562 17.8957 17.7463 15.9463C16.8678 13.8953 14.8309 12.4584 12.4584 12.4584ZM11.5 4.79169C9.9122 4.79169 8.62501 6.07888 8.62501 7.66669C8.62501 9.2545 9.9122 10.5417 11.5 10.5417C13.0878 10.5417 14.375 9.2545 14.375 7.66669C14.375 6.07888 13.0879 4.79169 11.5 4.79169Z" fill="#726097"/>
</svg>
