<svg width="20" height="20" viewBox="0 0 20 20" fill="none" xmlns="http://www.w3.org/2000/svg">
<path d="M15.5834 15.5C16.0696 15.5 16.5359 15.6931 16.8797 16.037C17.2235 16.3808 17.4167 16.8471 17.4167 17.3333C17.4167 17.8195 17.2235 18.2859 16.8797 18.6297C16.5359 18.9735 16.0696 19.1666 15.5834 19.1666C15.0971 19.1666 14.6308 18.9735 14.287 18.6297C13.9432 18.2859 13.75 17.8195 13.75 17.3333C13.75 16.3158 14.5659 15.5 15.5834 15.5ZM0.916687 0.833313H3.91419L4.77585 2.66665H18.3334C18.5765 2.66665 18.8096 2.76322 18.9815 2.93513C19.1534 3.10704 19.25 3.3402 19.25 3.58331C19.25 3.73915 19.2042 3.89498 19.14 4.04165L15.8584 9.97248C15.5467 10.5316 14.9417 10.9166 14.2542 10.9166H7.42502L6.60002 12.4108L6.57252 12.5208C6.57252 12.5816 6.59666 12.6399 6.63964 12.6829C6.68262 12.7258 6.74091 12.75 6.80169 12.75H17.4167V14.5833H6.41669C5.93046 14.5833 5.46414 14.3902 5.12032 14.0463C4.77651 13.7025 4.58335 13.2362 4.58335 12.75C4.58335 12.4291 4.66585 12.1266 4.80335 11.87L6.05002 9.62415L2.75002 2.66665H0.916687V0.833313ZM6.41669 15.5C6.90292 15.5 7.36923 15.6931 7.71305 16.037C8.05687 16.3808 8.25002 16.8471 8.25002 17.3333C8.25002 17.8195 8.05687 18.2859 7.71305 18.6297C7.36923 18.9735 6.90292 19.1666 6.41669 19.1666C5.93046 19.1666 5.46414 18.9735 5.12032 18.6297C4.77651 18.2859 4.58335 17.8195 4.58335 17.3333C4.58335 16.3158 5.39919 15.5 6.41669 15.5ZM14.6667 9.08331L17.215 4.49998H5.62835L7.79169 9.08331H14.6667Z" fill="#726097"/>
</svg>
